<?xml version="1.0" encoding="utf-8"?>
<!-- Generator: Adobe Illustrator 24.3.0, SVG Export Plug-In . SVG Version: 6.00 Build 0)  -->
<svg version="1.1" id="Шар_1" xmlns="http://www.w3.org/2000/svg" xmlns:xlink="http://www.w3.org/1999/xlink" x="0px" y="0px"
	 viewBox="0 0 200 200" style="enable-background:new 0 0 200 200;" xml:space="preserve">
<style type="text/css">
	.st0{fill:url(#SVGID_1_);}
	.st1{fill:#3AAA35;}
	.st2{font-family:'MyriadPro-Regular';}
	.st3{font-size:24.2686px;}
	.st4{fill:#E94F1D;stroke:#1E1E1C;stroke-miterlimit:10;}
	.st5{fill:none;}
</style>
<linearGradient id="SVGID_1_" gradientUnits="userSpaceOnUse" x1="0.6" y1="99.6" x2="200.2" y2="99.6">
	<stop  offset="0" style="stop-color:#FFEF26"/>
	<stop  offset="0.0862" style="stop-color:#FFE000"/>
	<stop  offset="0.1887" style="stop-color:#FFD300"/>
	<stop  offset="0.2943" style="stop-color:#FECB00"/>
	<stop  offset="0.4068" style="stop-color:#FDC800"/>
	<stop  offset="0.6685" style="stop-color:#F18F34"/>
	<stop  offset="0.8876" style="stop-color:#E95F32"/>
	<stop  offset="1" style="stop-color:#E3312D"/>
</linearGradient>
<rect x="0.6" y="-0.2" class="st0" width="199.6" height="199.6"/>
<g>
	<text transform="matrix(0.9156 1.729797e-03 -1.889280e-03 1 68.2348 83.7516)" class="st1 st2 st3">4-a class</text>
	<g>
	</g>
	<g>
		<path class="st4" d="M184.61,74.66c-0.33-1.15-1.36-1.96-2.56-1.96l-12.17-0.02c-1.88,0-3.15,1.89-2.46,3.64
			c1.77,4.46,2.75,9.39,2.74,14.56c-0.01,6.63-1.65,12.84-4.49,18.19c-2.94,5.52-7.17,10.12-12.23,13.31
			c-4.91,3.08-10.61,4.85-16.67,4.84l-14.01-0.03c-1.47,0-2.65-1.19-2.65-2.66l0-0.79c0-0.89-0.45-1.7-1.18-2.21
			c-4.53-3.16-8.31-7.47-11-12.57c-2.82-5.36-4.44-11.58-4.42-18.21c-0.01,6.28-0.75,12.39-2.14,18.2
			c-1.06,4.45-2.49,8.73-4.26,12.8c-0.37,0.85-0.3,1.83,0.24,2.58c0.44,0.62,0.89,1.22,1.35,1.82c0.5,0.64,1.27,1,2.08,1h0
			c1.47,0,2.65,1.19,2.65,2.66l0,0.5c0,0.73,0.29,1.43,0.82,1.93c4.62,4.34,9.96,7.76,15.82,10.03c5.21,2.02,10.82,3.13,16.66,3.14
			c5.84,0.01,11.45-1.08,16.67-3.08c5.86-2.25,11.22-5.66,15.86-9.97c0.53-0.5,0.83-1.2,0.83-1.93l0-0.5c0-1.47,1.19-2.65,2.66-2.65
			c0.81,0,1.58-0.36,2.08-1c3.93-5.02,7.05-10.83,9.12-17.18c1.85-5.69,2.87-11.82,2.88-18.2C186.84,85.26,186.06,79.8,184.61,74.66
			z"/>
		<path class="st4" d="M109.11,50.73l11.36,0.02c1.47,0,2.66-1.18,2.66-2.65l0.02-8.38c0-1.96-2.06-3.26-3.82-2.4
			c-4.38,2.14-8.43,4.95-12.03,8.31c-0.53,0.5-0.83,1.2-0.83,1.93l0,0.5C106.46,49.53,107.65,50.72,109.11,50.73z"/>
		<path class="st4" d="M104.09,69.19c0.14,0.57,0.61,0.96,1.14,0.97c0.66,0,1.19-0.58,1.19-1.3l0.01-7.8l-0.01,6.45
			c0,1.47,1.18,2.66,2.65,2.66l1.8,0c0.04-0.07,0.08-0.15,0.12-0.22c0.12-0.23,0.25-0.45,0.38-0.68c0.04-0.07,0.08-0.14,0.12-0.21
			c0-0.01,0.01-0.02,0.01-0.03c0.08-0.15,0.17-0.29,0.26-0.43c0.09-0.15,0.19-0.3,0.28-0.45c0.02-0.04,0.05-0.08,0.07-0.12
			c0.09-0.15,0.18-0.29,0.27-0.43c0-0.01,0-0.01,0-0.01c0.01-0.01,0.01-0.02,0.02-0.03c0.03-0.05,0.05-0.09,0.08-0.13
			c0.06-0.09,0.12-0.18,0.17-0.26c0.2-0.3,0.4-0.59,0.6-0.88c0-0.01,0-0.01,0.01-0.01c0.02-0.04,0.05-0.08,0.08-0.12
			c0.19-0.26,0.37-0.53,0.57-0.78c0.04-0.05,0.07-0.1,0.11-0.15c0.13-0.17,0.26-0.33,0.39-0.49c0.09-0.12,0.18-0.23,0.27-0.34
			c0-0.02,0.02-0.03,0.03-0.05c0.03-0.04,0.06-0.08,0.09-0.11c0.19-0.23,0.38-0.46,0.58-0.69c0.02-0.03,0.04-0.06,0.07-0.08
			c0.08-0.1,0.16-0.19,0.25-0.28c0.04-0.05,0.07-0.09,0.11-0.13c0.04-0.05,0.08-0.09,0.13-0.14c0.08-0.09,0.16-0.18,0.25-0.27
			s0.17-0.18,0.25-0.27c0.04-0.05,0.08-0.09,0.13-0.14c0.04-0.04,0.08-0.08,0.12-0.12c0.09-0.09,0.17-0.18,0.26-0.27
			c0.02-0.03,0.05-0.06,0.07-0.08c0.21-0.21,0.42-0.42,0.63-0.63c0.03-0.04,0.07-0.07,0.1-0.1c0.01-0.02,0.03-0.03,0.04-0.04
			c0.1-0.1,0.21-0.2,0.32-0.3c0.15-0.14,0.3-0.28,0.45-0.42c0.05-0.04,0.09-0.08,0.14-0.12c0.24-0.21,0.48-0.41,0.72-0.62
			c0.03-0.04,0.07-0.07,0.11-0.09c0-0.01,0-0.01,0.01-0.01c0.27-0.22,0.54-0.44,0.81-0.66c0.08-0.06,0.16-0.13,0.24-0.19
			c0.04-0.04,0.08-0.06,0.12-0.09c0.01-0.01,0.02-0.02,0.03-0.03c0,0,0,0,0,0c0.13-0.1,0.26-0.2,0.39-0.29
			c0.04-0.03,0.07-0.06,0.11-0.08c0.14-0.1,0.28-0.2,0.42-0.3c0.13-0.1,0.26-0.19,0.4-0.28c0.01-0.01,0.01-0.01,0.02-0.02
			c0.06-0.05,0.13-0.09,0.19-0.13c0.21-0.14,0.42-0.28,0.63-0.41c0.06-0.05,0.13-0.09,0.2-0.13c0.55-0.34,1.11-0.68,1.68-0.98
			c0.12-0.07,0.25-0.14,0.37-0.2c0.21-0.12,0.43-0.23,0.64-0.34c0.33-0.17,0.67-0.33,1.01-0.48c0.13-0.06,0.25-0.12,0.38-0.17
			c0.21-0.1,0.42-0.19,0.63-0.28c0.76-0.32,1.53-0.61,2.32-0.86c0.26-0.09,0.52-0.17,0.79-0.25c0.38-0.11,0.75-0.22,1.14-0.32
			c0.18-0.05,0.35-0.09,0.53-0.13c0.36-0.09,0.72-0.17,1.07-0.24c0.14-0.03,0.28-0.06,0.42-0.08c0.22-0.05,0.44-0.08,0.67-0.12
			c0.25-0.04,0.5-0.08,0.75-0.11c0.3-0.04,0.6-0.08,0.89-0.11c0.27-0.02,0.54-0.05,0.81-0.07c0.25-0.02,0.5-0.03,0.74-0.05
			c0.19-0.01,0.37-0.02,0.56-0.02c5.76,0.16,11.16,1.91,15.84,4.87c4.63,2.94,8.56,7.07,11.43,11.99c0.48,0.83,1.35,1.36,2.31,1.37
			l12.94,0.02c1.89,0,3.16-1.91,2.46-3.66c-1.97-4.94-4.58-9.5-7.73-13.55c-0.5-0.64-1.27-1-2.08-1l-13.5-0.03l10.28,0.02
			c1.47,0,2.66-1.18,2.66-2.65l0-0.5c0-0.73-0.29-1.43-0.82-1.93c-4.62-4.34-9.96-7.76-15.82-10.03c-4.37-1.7-9.02-2.75-13.86-3.05
			c-1.52-0.09-2.81,1.13-2.81,2.65c0-1.52-1.28-2.75-2.8-2.66c-4.17,0.24-8.2,1.05-12.03,2.34c-1.09,0.37-1.83,1.37-1.84,2.52
			l-0.02,10.58c0,1.47,1.18,2.66,2.65,2.66l-16.66-0.03c-1.47,0-2.66,1.18-2.66,2.65l0-1.35c0-0.72-0.53-1.3-1.19-1.3l-2.2,0
			c-0.34,0-0.67,0.16-0.9,0.44c-0.44,0.55-0.87,1.1-1.29,1.67c-0.86,1.16-1.01,2.68-0.45,4.01
			C101.91,61.63,103.14,65.34,104.09,69.19z M139.79,49.37c0,1.47,1.18,2.66,2.65,2.66l-2.65-0.01c0,0,0,0,0,0l-2.65-0.01
			C138.6,52.02,139.79,50.83,139.79,49.37z"/>
		<path class="st4" d="M97.88,53.28c-0.44-0.62-0.89-1.22-1.35-1.82c-0.5-0.64-1.27-1-2.08-1h0c-1.47,0-2.65-1.19-2.65-2.66l0-0.5
			c0-0.73-0.29-1.43-0.82-1.93c-4.62-4.34-9.96-7.76-15.82-10.03c-5.21-2.02-10.82-3.13-16.66-3.14
			c-5.84-0.01-11.45,1.08-16.67,3.08c-5.86,2.25-11.22,5.66-15.86,9.97c-0.53,0.5-0.83,1.2-0.83,1.93l0,0.5
			c0,1.47-1.19,2.65-2.66,2.65h0c-0.81,0-1.58,0.36-2.08,1c-3.93,5.02-7.05,10.83-9.12,17.18C9.43,74.19,8.41,80.32,8.4,86.7
			c-0.01,6.38,0.98,12.51,2.81,18.21c2.04,6.36,5.13,12.18,9.05,17.22c0.5,0.64,1.27,1,2.08,1c1.47,0,2.65,1.19,2.65,2.66l0,0.5
			c0,0.73,0.29,1.43,0.82,1.93c4.62,4.34,9.96,7.76,15.82,10.03c5.21,2.02,10.82,3.13,16.66,3.14c5.84,0.01,11.45-1.08,16.67-3.08
			c5.86-2.25,11.22-5.66,15.86-9.97c0.53-0.5,0.83-1.2,0.83-1.93l0.07-39.56c-0.01,6.63-1.65,12.84-4.49,18.19
			c-2.71,5.08-6.51,9.39-11.05,12.53c-0.73,0.51-1.19,1.32-1.19,2.21l0,0.79c0,1.47-1.19,2.65-2.66,2.65l-28.02-0.05
			c-1.47,0-2.65-1.19-2.65-2.66l0-0.79c0-0.89-0.45-1.7-1.18-2.21c-4.12-2.87-7.62-6.7-10.24-11.2c-0.48-0.83-1.35-1.36-2.31-1.37
			l-0.25,0c-1.47,0-2.65-1.19-2.65-2.66l0.06-31.1c0-1.47,1.19-2.65,2.66-2.65l0.25,0c0.96,0,1.83-0.53,2.32-1.36
			c2.64-4.49,6.16-8.31,10.28-11.17c0.73-0.51,1.19-1.32,1.19-2.21l0-0.79c0-1.47,1.19-2.65,2.66-2.65l28.02,0.05
			c1.47,0,2.65,1.19,2.65,2.66l0,0.79c0,0.89,0.45,1.7,1.18,2.21c4.12,2.87,7.62,6.7,10.24,11.2c0.48,0.83,1.35,1.36,2.31,1.37
			l2.93,0.01c1.22,0,2.26-0.83,2.58-2c0.99-3.73,2.25-7.34,3.75-10.79C98.49,55.01,98.41,54.03,97.88,53.28z"/>
	</g>
	<path class="st5" d="M97.38,95.52h47.09c1.47,0,2.65-1.19,2.65-2.65v-8.69c0-1.47-1.19-2.65-2.65-2.65H97.38
		c-1.47,0-2.65,1.19-2.65,2.65v8.69C94.73,94.33,95.92,95.52,97.38,95.52z"/>
	<text transform="matrix(0.9156 0 0 1 64.762 85.1573)" class="st2 st3">4-a class</text>
	<path class="st5" d="M152.98,101.12h47.09c1.47,0,2.65-1.19,2.65-2.65v-8.69c0-1.47-1.19-2.65-2.65-2.65h-47.09
		c-1.47,0-2.65,1.19-2.65,2.65v8.69C150.33,99.93,151.52,101.12,152.98,101.12z"/>
</g>
</svg>
